<?xml version="1.0" encoding="iso-8859-1"?>
<!-- Uploaded to: SVG Repo, www.svgrepo.com, Generator: SVG Repo Mixer Tools -->
<svg version="1.1" id="Layer_1" xmlns="http://www.w3.org/2000/svg" xmlns:xlink="http://www.w3.org/1999/xlink" 
	 viewBox="0 0 512 512" xml:space="preserve">
<path style="fill:#CFD8DC;" d="M221.905,293.926c-12.212,0-24.235-2.949-35.063-8.59l-43.899-22.888
	c-8.126-4.238-17.152-6.447-26.302-6.447H94.815c37.679,24.633,69.111,54.699,84.537,94.815h11.909c7.775,0,12.98-7.974,9.87-15.095
	c-3.432-7.86-7.367-15.644-14.696-24.472c-2.579-3.119-0.493-7.841,3.556-7.841h4.466c5.736,0,11.16,2.598,14.763,7.054
	l19.153,23.742c3.603,4.466,9.026,7.054,14.763,7.054h4.105c4.608,0,8.96,1.792,12.497,4.75
	c12.781,10.695,27.43,18.593,43.416,24.045c5.073,1.726,3.868,9.15-1.489,9.15l-168.922,0.057v28.444h47.142
	c5.442,0,9.766,4.532,9.5,9.965c-1.109,22.784-5.831,49.873-13.502,68.276C170.695,498.366,180.3,512,193.754,512H403.57
	c13.454,0,23.059-13.634,17.882-26.055c-8.818-21.172-13.748-44.373-13.748-68.76c0-15.142,1.934-29.81,5.499-43.833
	c3.233-12.715,11.245-23.457,21.722-31.346c16.687-12.582,29.668-32.076,29.668-48.081H221.905z"/>
<path style="fill:#B0BEC5;" d="M303.151,370.053c-15.986-5.452-30.644-13.35-43.416-24.045c-3.537-2.958-7.889-4.75-12.497-4.75
	h-4.105c-5.736,0-11.16-2.598-14.763-7.054l-19.153-23.742c-3.603-4.456-9.026-7.054-14.753-7.054h-4.466
	c-4.049,0-6.144,4.722-3.556,7.841c7.329,8.827,11.264,16.612,14.696,24.472c3.11,7.121-2.105,15.095-9.88,15.095h-11.909h-46.611
	v28.444l168.922-0.057C307.02,379.202,308.224,371.778,303.151,370.053z"/>
<path style="fill:#ECEFF1;" d="M142.933,262.447l43.899,22.888c10.837,5.641,22.86,8.59,35.072,8.59h242.878
	c6.732,0,12.876-3.944,15.635-10.098c0.815-1.811,1.583-3.641,2.313-5.48c2.456-6.172-2.285-12.866-8.932-12.866H212.395
	c-15.085,0-29.554-5.992-40.23-16.659l-15.711-15.711c-3.546-3.556-8.363-5.556-13.397-5.556H75.852v5.935
	c0,7.339,3.176,14.127,8.514,18.83c2.892,2.551,6.77,3.679,10.619,3.679h21.646C125.791,256,134.817,258.209,142.933,262.447z"/>
<path style="fill:#4FC3F7;" d="M483.556,265.481H237.037V256c0-5.234,4.248-9.481,9.481-9.481h227.556
	c5.234,0,9.482,4.248,9.482,9.481V265.481z"/>
<path style="fill:#81D4FA;" d="M483.556,237.037H237.037v-9.481c0-5.234,4.248-9.481,9.481-9.481h227.556
	c5.234,0,9.482,4.248,9.482,9.481V237.037z"/>
<rect x="151.704" y="56.889" style="fill:#616161;" width="18.963" height="37.926"/>
<path style="fill:#CFD8DC;" d="M163.044,28.444h-11.34H37.926v199.111c0,5.234,4.248,9.481,9.481,9.481l86.775-0.009
	c9.908,0,18.148-7.595,18.897-17.474C156.103,180.167,163.044,83.608,163.044,28.444z"/>
<path style="fill:#81D4FA;" d="M161.185,37.926H37.926c-5.234,0-9.481-4.248-9.481-9.481v-9.481C28.444,8.486,36.93,0,47.407,0
	l60.795,6.078c22.338,2.238,43.785,9.918,62.464,22.367l0,0C170.667,33.678,166.419,37.926,161.185,37.926z"/>
</svg>